<mxfile host="app.diagrams.net" modified="2023-12-27T20:40:34.844Z" agent="Mozilla/5.0 (Windows NT 10.0; Win64; x64) AppleWebKit/537.36 (KHTML, like Gecko) Chrome/120.0.0.0 Safari/537.36" etag="i1b92r6_7qkoKiQ8h0DR" version="22.1.15" type="device">
  <diagram name="Страница — 1" id="xurIpGSSyfO9vN-plm1I">
    <mxGraphModel dx="573" dy="322" grid="1" gridSize="10" guides="1" tooltips="1" connect="1" arrows="1" fold="1" page="1" pageScale="1" pageWidth="583" pageHeight="413" math="0" shadow="0">
      <root>
        <mxCell id="0" />
        <mxCell id="1" parent="0" />
        <mxCell id="m3QkviYhlqNf6il2HSnO-1" value="" style="rounded=0;whiteSpace=wrap;html=1;" parent="1" vertex="1">
          <mxGeometry x="190" y="150" width="90" height="150" as="geometry" />
        </mxCell>
        <mxCell id="m3QkviYhlqNf6il2HSnO-2" value="&lt;font style=&quot;font-size: 10px;&quot;&gt;&quot;Название отеля и фио менеджера&quot;&lt;/font&gt;" style="rounded=0;whiteSpace=wrap;html=1;" parent="1" vertex="1">
          <mxGeometry x="190" y="260" width="90" height="40" as="geometry" />
        </mxCell>
        <mxCell id="m3QkviYhlqNf6il2HSnO-16" style="edgeStyle=orthogonalEdgeStyle;rounded=0;orthogonalLoop=1;jettySize=auto;html=1;entryX=0;entryY=0.5;entryDx=0;entryDy=0;" parent="1" source="m3QkviYhlqNf6il2HSnO-3" target="m3QkviYhlqNf6il2HSnO-11" edge="1">
          <mxGeometry relative="1" as="geometry" />
        </mxCell>
        <mxCell id="m3QkviYhlqNf6il2HSnO-3" value="&lt;font style=&quot;font-size: 9px;&quot;&gt;Изменение данных&lt;/font&gt;" style="rounded=0;whiteSpace=wrap;html=1;" parent="1" vertex="1">
          <mxGeometry x="190" y="150" width="90" height="20" as="geometry" />
        </mxCell>
        <mxCell id="m3QkviYhlqNf6il2HSnO-24" style="edgeStyle=orthogonalEdgeStyle;rounded=0;orthogonalLoop=1;jettySize=auto;html=1;entryX=1;entryY=0.5;entryDx=0;entryDy=0;" parent="1" source="m3QkviYhlqNf6il2HSnO-4" target="m3QkviYhlqNf6il2HSnO-20" edge="1">
          <mxGeometry relative="1" as="geometry" />
        </mxCell>
        <mxCell id="p8IB7G-2oSo4V6yU314W-1" style="edgeStyle=orthogonalEdgeStyle;rounded=0;orthogonalLoop=1;jettySize=auto;html=1;exitX=0;exitY=0.75;exitDx=0;exitDy=0;entryX=1;entryY=0.75;entryDx=0;entryDy=0;" edge="1" parent="1" source="m3QkviYhlqNf6il2HSnO-4" target="m3QkviYhlqNf6il2HSnO-32">
          <mxGeometry relative="1" as="geometry" />
        </mxCell>
        <mxCell id="m3QkviYhlqNf6il2HSnO-4" value="&lt;font style=&quot;font-size: 9px;&quot;&gt;Брони&lt;/font&gt;" style="rounded=0;whiteSpace=wrap;html=1;" parent="1" vertex="1">
          <mxGeometry x="190" y="170" width="90" height="20" as="geometry" />
        </mxCell>
        <mxCell id="m3QkviYhlqNf6il2HSnO-5" value="&lt;font style=&quot;font-size: 9px;&quot;&gt;Изменение цен&lt;/font&gt;" style="rounded=0;whiteSpace=wrap;html=1;" parent="1" vertex="1">
          <mxGeometry x="190" y="192" width="90" height="18" as="geometry" />
        </mxCell>
        <mxCell id="m3QkviYhlqNf6il2HSnO-6" value="Отзывы" style="rounded=0;whiteSpace=wrap;html=1;" parent="1" vertex="1">
          <mxGeometry x="190" y="210" width="90" height="20" as="geometry" />
        </mxCell>
        <mxCell id="m3QkviYhlqNf6il2HSnO-42" style="edgeStyle=orthogonalEdgeStyle;rounded=0;orthogonalLoop=1;jettySize=auto;html=1;" parent="1" source="m3QkviYhlqNf6il2HSnO-8" edge="1">
          <mxGeometry relative="1" as="geometry">
            <mxPoint x="320" y="340" as="targetPoint" />
            <Array as="points">
              <mxPoint x="235" y="320" />
              <mxPoint x="300" y="320" />
            </Array>
          </mxGeometry>
        </mxCell>
        <mxCell id="m3QkviYhlqNf6il2HSnO-8" value="Статистика" style="rounded=0;whiteSpace=wrap;html=1;" parent="1" vertex="1">
          <mxGeometry x="190" y="230" width="90" height="30" as="geometry" />
        </mxCell>
        <mxCell id="m3QkviYhlqNf6il2HSnO-9" value="" style="rounded=0;whiteSpace=wrap;html=1;" parent="1" vertex="1">
          <mxGeometry x="300" y="150" width="90" height="150" as="geometry" />
        </mxCell>
        <mxCell id="m3QkviYhlqNf6il2HSnO-10" value="&lt;span style=&quot;font-size: 10px;&quot;&gt;местоположение&lt;/span&gt;" style="rounded=0;whiteSpace=wrap;html=1;" parent="1" vertex="1">
          <mxGeometry x="300" y="260" width="90" height="40" as="geometry" />
        </mxCell>
        <mxCell id="m3QkviYhlqNf6il2HSnO-11" value="&lt;font style=&quot;font-size: 9px;&quot;&gt;фотографии&lt;/font&gt;" style="rounded=0;whiteSpace=wrap;html=1;" parent="1" vertex="1">
          <mxGeometry x="300" y="150" width="90" height="20" as="geometry" />
        </mxCell>
        <mxCell id="m3QkviYhlqNf6il2HSnO-12" value="&lt;font style=&quot;font-size: 9px;&quot;&gt;текст&lt;/font&gt;" style="rounded=0;whiteSpace=wrap;html=1;" parent="1" vertex="1">
          <mxGeometry x="300" y="170" width="90" height="20" as="geometry" />
        </mxCell>
        <mxCell id="m3QkviYhlqNf6il2HSnO-13" value="&lt;font style=&quot;font-size: 9px;&quot;&gt;цены&lt;/font&gt;" style="rounded=0;whiteSpace=wrap;html=1;" parent="1" vertex="1">
          <mxGeometry x="300" y="192" width="90" height="18" as="geometry" />
        </mxCell>
        <mxCell id="m3QkviYhlqNf6il2HSnO-14" value="услуги" style="rounded=0;whiteSpace=wrap;html=1;" parent="1" vertex="1">
          <mxGeometry x="300" y="210" width="90" height="20" as="geometry" />
        </mxCell>
        <mxCell id="m3QkviYhlqNf6il2HSnO-15" value="доп информация" style="rounded=0;whiteSpace=wrap;html=1;" parent="1" vertex="1">
          <mxGeometry x="300" y="230" width="90" height="30" as="geometry" />
        </mxCell>
        <mxCell id="m3QkviYhlqNf6il2HSnO-17" value="" style="rounded=0;whiteSpace=wrap;html=1;" parent="1" vertex="1">
          <mxGeometry x="60" y="150" width="90" height="150" as="geometry" />
        </mxCell>
        <mxCell id="m3QkviYhlqNf6il2HSnO-18" value="Главная" style="rounded=0;whiteSpace=wrap;html=1;" parent="1" vertex="1">
          <mxGeometry x="60" y="260" width="90" height="40" as="geometry" />
        </mxCell>
        <mxCell id="m3QkviYhlqNf6il2HSnO-19" value="" style="rounded=0;whiteSpace=wrap;html=1;" parent="1" vertex="1">
          <mxGeometry x="60" y="150" width="90" height="20" as="geometry" />
        </mxCell>
        <mxCell id="m3QkviYhlqNf6il2HSnO-20" value="" style="rounded=0;whiteSpace=wrap;html=1;" parent="1" vertex="1">
          <mxGeometry x="60" y="170" width="90" height="20" as="geometry" />
        </mxCell>
        <mxCell id="m3QkviYhlqNf6il2HSnO-21" value="" style="rounded=0;whiteSpace=wrap;html=1;" parent="1" vertex="1">
          <mxGeometry x="60" y="192" width="90" height="18" as="geometry" />
        </mxCell>
        <mxCell id="m3QkviYhlqNf6il2HSnO-22" value="" style="rounded=0;whiteSpace=wrap;html=1;" parent="1" vertex="1">
          <mxGeometry x="60" y="210" width="90" height="20" as="geometry" />
        </mxCell>
        <mxCell id="m3QkviYhlqNf6il2HSnO-23" value="" style="rounded=0;whiteSpace=wrap;html=1;" parent="1" vertex="1">
          <mxGeometry x="60" y="230" width="90" height="30" as="geometry" />
        </mxCell>
        <mxCell id="m3QkviYhlqNf6il2HSnO-26" value="" style="rounded=0;whiteSpace=wrap;html=1;" parent="1" vertex="1">
          <mxGeometry x="60" y="350" width="90" height="150" as="geometry" />
        </mxCell>
        <mxCell id="m3QkviYhlqNf6il2HSnO-33" style="edgeStyle=orthogonalEdgeStyle;rounded=0;orthogonalLoop=1;jettySize=auto;html=1;entryX=0;entryY=0.25;entryDx=0;entryDy=0;" parent="1" source="m3QkviYhlqNf6il2HSnO-27" target="m3QkviYhlqNf6il2HSnO-5" edge="1">
          <mxGeometry relative="1" as="geometry" />
        </mxCell>
        <mxCell id="m3QkviYhlqNf6il2HSnO-27" value="Главная" style="rounded=0;whiteSpace=wrap;html=1;" parent="1" vertex="1">
          <mxGeometry x="60" y="460" width="90" height="40" as="geometry" />
        </mxCell>
        <mxCell id="m3QkviYhlqNf6il2HSnO-28" value="" style="rounded=0;whiteSpace=wrap;html=1;" parent="1" vertex="1">
          <mxGeometry x="60" y="350" width="90" height="20" as="geometry" />
        </mxCell>
        <mxCell id="m3QkviYhlqNf6il2HSnO-29" value="" style="rounded=0;whiteSpace=wrap;html=1;" parent="1" vertex="1">
          <mxGeometry x="60" y="370" width="90" height="20" as="geometry" />
        </mxCell>
        <mxCell id="m3QkviYhlqNf6il2HSnO-30" value="" style="rounded=0;whiteSpace=wrap;html=1;" parent="1" vertex="1">
          <mxGeometry x="60" y="392" width="90" height="18" as="geometry" />
        </mxCell>
        <mxCell id="m3QkviYhlqNf6il2HSnO-31" value="" style="rounded=0;whiteSpace=wrap;html=1;" parent="1" vertex="1">
          <mxGeometry x="60" y="410" width="90" height="20" as="geometry" />
        </mxCell>
        <mxCell id="m3QkviYhlqNf6il2HSnO-32" value="" style="rounded=0;whiteSpace=wrap;html=1;" parent="1" vertex="1">
          <mxGeometry x="60" y="430" width="90" height="30" as="geometry" />
        </mxCell>
        <mxCell id="m3QkviYhlqNf6il2HSnO-34" value="" style="rounded=0;whiteSpace=wrap;html=1;" parent="1" vertex="1">
          <mxGeometry x="190" y="350" width="90" height="150" as="geometry" />
        </mxCell>
        <mxCell id="m3QkviYhlqNf6il2HSnO-35" value="Главная" style="rounded=0;whiteSpace=wrap;html=1;" parent="1" vertex="1">
          <mxGeometry x="190" y="460" width="90" height="40" as="geometry" />
        </mxCell>
        <mxCell id="m3QkviYhlqNf6il2HSnO-36" value="Отзыв" style="rounded=0;whiteSpace=wrap;html=1;" parent="1" vertex="1">
          <mxGeometry x="190" y="350" width="90" height="20" as="geometry" />
        </mxCell>
        <mxCell id="m3QkviYhlqNf6il2HSnO-37" value="&lt;font style=&quot;font-size: 9px;&quot;&gt;Ответить на отзыв&lt;/font&gt;" style="rounded=0;whiteSpace=wrap;html=1;" parent="1" vertex="1">
          <mxGeometry x="190" y="370" width="90" height="20" as="geometry" />
        </mxCell>
        <mxCell id="m3QkviYhlqNf6il2HSnO-38" value="Отзыв" style="rounded=0;whiteSpace=wrap;html=1;" parent="1" vertex="1">
          <mxGeometry x="190" y="392" width="90" height="18" as="geometry" />
        </mxCell>
        <mxCell id="m3QkviYhlqNf6il2HSnO-39" value="&lt;font style=&quot;font-size: 9px;&quot;&gt;Ответить на отзыв&lt;/font&gt;" style="rounded=0;whiteSpace=wrap;html=1;" parent="1" vertex="1">
          <mxGeometry x="190" y="410" width="90" height="20" as="geometry" />
        </mxCell>
        <mxCell id="m3QkviYhlqNf6il2HSnO-40" value="Отзыв" style="rounded=0;whiteSpace=wrap;html=1;" parent="1" vertex="1">
          <mxGeometry x="190" y="430" width="90" height="30" as="geometry" />
        </mxCell>
        <mxCell id="m3QkviYhlqNf6il2HSnO-41" style="edgeStyle=orthogonalEdgeStyle;rounded=0;orthogonalLoop=1;jettySize=auto;html=1;entryX=0.444;entryY=0;entryDx=0;entryDy=0;entryPerimeter=0;" parent="1" source="m3QkviYhlqNf6il2HSnO-6" target="m3QkviYhlqNf6il2HSnO-36" edge="1">
          <mxGeometry relative="1" as="geometry">
            <Array as="points">
              <mxPoint x="180" y="220" />
              <mxPoint x="180" y="330" />
              <mxPoint x="230" y="330" />
            </Array>
          </mxGeometry>
        </mxCell>
        <mxCell id="m3QkviYhlqNf6il2HSnO-43" value="" style="rounded=0;whiteSpace=wrap;html=1;" parent="1" vertex="1">
          <mxGeometry x="320" y="330" width="90" height="150" as="geometry" />
        </mxCell>
        <mxCell id="m3QkviYhlqNf6il2HSnO-44" value="Главная" style="rounded=0;whiteSpace=wrap;html=1;" parent="1" vertex="1">
          <mxGeometry x="320" y="440" width="90" height="40" as="geometry" />
        </mxCell>
        <mxCell id="m3QkviYhlqNf6il2HSnO-45" value="Прибыль" style="rounded=0;whiteSpace=wrap;html=1;" parent="1" vertex="1">
          <mxGeometry x="320" y="330" width="90" height="20" as="geometry" />
        </mxCell>
        <mxCell id="m3QkviYhlqNf6il2HSnO-46" value="среднее время проживания" style="rounded=0;whiteSpace=wrap;html=1;" parent="1" vertex="1">
          <mxGeometry x="320" y="350" width="90" height="40" as="geometry" />
        </mxCell>
        <mxCell id="m3QkviYhlqNf6il2HSnO-48" value="Рейтинг" style="rounded=0;whiteSpace=wrap;html=1;" parent="1" vertex="1">
          <mxGeometry x="320" y="390" width="90" height="20" as="geometry" />
        </mxCell>
        <mxCell id="m3QkviYhlqNf6il2HSnO-49" value="Лучший работник" style="rounded=0;whiteSpace=wrap;html=1;" parent="1" vertex="1">
          <mxGeometry x="320" y="410" width="90" height="30" as="geometry" />
        </mxCell>
      </root>
    </mxGraphModel>
  </diagram>
</mxfile>
